<svg xmlns="http://www.w3.org/2000/svg" xmlns:xlink="http://www.w3.org/1999/xlink" xmlns:s="https://github.com/nturley/netlistsvg" width="1219" height="748.5"><style>svg {
  stroke:#000;
  fill:none;
}
text {
  fill:#000;
  stroke:none;
  font-size:10px;
  font-weight: bold;
  font-family: "Courier New", monospace;
}
line {
    stroke-linecap: round;
}
.nodelabel {
  text-anchor: middle;
}
.inputPortLabel {
  text-anchor: end;
}
.splitjoinBody {
  fill:#000;
}</style><g s:type="add" transform="translate(731,106.5)" s:width="25" s:height="25" id="cell_$add$../../rtl/aes_controller_iterative.sv:44$18"><s:alias val="$add"/><circle r="12.5" cx="12.5" cy="12.5" class="cell_$add$../../rtl/aes_controller_iterative.sv:44$18"/><line x1="7.5" x2="17.5" y1="12.5" y2="12.5" class="cell_$add$../../rtl/aes_controller_iterative.sv:44$18"/><line x1="12.5" x2="12.5" y1="7.5" y2="17.5" class="cell_$add$../../rtl/aes_controller_iterative.sv:44$18"/><g s:x="2" s:y="5" s:pid="A"/><g s:x="2" s:y="20" s:pid="B"/><g s:x="26" s:y="12.5" s:pid="Y"/></g><g s:type="generic" transform="translate(479,101)" s:width="30" s:height="40" id="cell_$auto$ff.cc:337:slice$45"><text x="15" y="-4" class="nodelabel cell_$auto$ff.cc:337:slice$45" s:attribute="ref">$adffe-bus</text><rect width="30" height="80" s:generic="body" class="cell_$auto$ff.cc:337:slice$45"/><g transform="translate(0,10)" s:x="0" s:y="10" s:pid="in0" id="port_$auto$ff.cc:337:slice$45~ARST"><text x="-3" y="-4" class="inputPortLabel cell_$auto$ff.cc:337:slice$45">ARST</text></g><g transform="translate(0,30)" s:x="0" s:y="10" s:pid="in0" id="port_$auto$ff.cc:337:slice$45~CLK"><text x="-3" y="-4" class="inputPortLabel cell_$auto$ff.cc:337:slice$45">CLK</text></g><g transform="translate(0,50)" s:x="0" s:y="10" s:pid="in0" id="port_$auto$ff.cc:337:slice$45~D"><text x="-3" y="-4" class="inputPortLabel cell_$auto$ff.cc:337:slice$45">D</text></g><g transform="translate(0,70)" s:x="0" s:y="10" s:pid="in0" id="port_$auto$ff.cc:337:slice$45~EN"><text x="-3" y="-4" class="inputPortLabel cell_$auto$ff.cc:337:slice$45">EN</text></g><g transform="translate(30,10)" s:x="30" s:y="10" s:pid="out0" id="port_$auto$ff.cc:337:slice$45~Q"><text x="5" y="-4" style="fill:#000; stroke:none" class="cell_$auto$ff.cc:337:slice$45">Q</text></g></g><g s:type="or" transform="translate(389,160)" s:width="30" s:height="25" id="cell_$auto$opt_dff.cc:235:make_patterns_logic$47"><s:alias val="$or"/><s:alias val="$logic_or"/><s:alias val="$_OR_"/><s:alias val="$reduce_or"/><s:alias val="$reduce_bool"/><path d="M0,0 A30 25 0 0 1 0,25 A30 25 0 0 0 30,12.5 A30 25 0 0 0 0,0" class="cell_$auto$opt_dff.cc:235:make_patterns_logic$47"/><g s:x="2" s:y="5" s:pid="A"/><g s:x="2" s:y="20" s:pid="B"/><g s:x="30" s:y="12.5" s:pid="Y"/></g><g s:type="eq" transform="translate(795,254)" s:width="25" s:height="25" id="cell_$eq$../../rtl/aes_controller_iterative.sv:28$13"><s:alias val="$eq"/><s:alias val="$eqx"/><circle r="12.5" cx="12.5" cy="12.5" class="cell_$eq$../../rtl/aes_controller_iterative.sv:28$13"/><line x1="7.5" x2="17.5" y1="10" y2="10" class="cell_$eq$../../rtl/aes_controller_iterative.sv:28$13"/><line x1="7.5" x2="17.5" y1="15" y2="15" class="cell_$eq$../../rtl/aes_controller_iterative.sv:28$13"/><g s:x="2" s:y="5" s:pid="A"/><g s:x="2" s:y="20" s:pid="B"/><g s:x="25" s:y="12.5" s:pid="Y"/></g><g s:type="and" transform="translate(171.66666666666666,645.5)" s:width="30" s:height="25" id="cell_$logic_and$../../rtl/aes_controller_iterative.sv:26$10"><s:alias val="$and"/><s:alias val="$logic_and"/><s:alias val="$_AND_"/><s:alias val="$reduce_and"/><path d="M0,0 L0,25 L15,25 A15 12.5 0 0 0 15,0 Z" class="cell_$logic_and$../../rtl/aes_controller_iterative.sv:26$10"/><g s:x="0" s:y="5" s:pid="A"/><g s:x="0" s:y="20" s:pid="B"/><g s:x="30" s:y="12.5" s:pid="Y"/></g><g s:type="and" transform="translate(237,580.5)" s:width="30" s:height="25" id="cell_$logic_and$../../rtl/aes_controller_iterative.sv:26$12"><s:alias val="$and"/><s:alias val="$logic_and"/><s:alias val="$_AND_"/><s:alias val="$reduce_and"/><path d="M0,0 L0,25 L15,25 A15 12.5 0 0 0 15,0 Z" class="cell_$logic_and$../../rtl/aes_controller_iterative.sv:26$12"/><g s:x="0" s:y="5" s:pid="A"/><g s:x="0" s:y="20" s:pid="B"/><g s:x="30" s:y="12.5" s:pid="Y"/></g><g s:type="and" transform="translate(1072,246.5)" s:width="30" s:height="25" id="cell_$logic_and$../../rtl/aes_controller_iterative.sv:28$14"><s:alias val="$and"/><s:alias val="$logic_and"/><s:alias val="$_AND_"/><s:alias val="$reduce_and"/><path d="M0,0 L0,25 L15,25 A15 12.5 0 0 0 15,0 Z" class="cell_$logic_and$../../rtl/aes_controller_iterative.sv:28$14"/><g s:x="0" s:y="5" s:pid="A"/><g s:x="0" s:y="20" s:pid="B"/><g s:x="30" s:y="12.5" s:pid="Y"/></g><g s:type="not" transform="translate(172,590.5)" s:width="30" s:height="20" id="cell_$logic_not$../../rtl/aes_controller_iterative.sv:26$11"><s:alias val="$_NOT_"/><s:alias val="$not"/><s:alias val="$logic_not"/><path d="M0,0 L0,20 L20,10 Z" class="cell_$logic_not$../../rtl/aes_controller_iterative.sv:26$11"/><circle cx="24" cy="10" r="3" class="cell_$logic_not$../../rtl/aes_controller_iterative.sv:26$11"/><g s:x="-1" s:y="10" s:pid="A"/><g s:x="27" s:y="10" s:pid="Y"/></g><g s:type="dff" transform="translate(90,145)" s:width="30" s:height="40" id="cell_$procdff$44"><s:alias val="$dff"/><s:alias val="$_DFF_"/><s:alias val="$_DFF_P_"/><s:alias val="$adff"/><s:alias val="$_DFF_"/><s:alias val="$_DFF_P_"/><s:alias val="$sdff"/><s:alias val="$_DFF_"/><s:alias val="$_DFF_P_"/><rect width="30" height="40" x="0" y="0" class="cell_$procdff$44"/><path d="M0,35 L5,30 L0,25" class="cell_$procdff$44"/><g s:x="31" s:y="10" s:pid="Q"/><g s:x="-1" s:y="30" s:pid="CLK"/><g s:x="-1" s:y="30" s:pid="C"/><g s:x="-1" s:y="10" s:pid="D"/><g s:x="15" s:y="40" s:pid="ARST"/><g s:x="15" s:y="40" s:pid="SRST"/></g><g s:type="mux" transform="translate(1013.6666666666666,481)" s:width="20" s:height="40" id="cell_$procmux$20"><s:alias val="$pmux"/><s:alias val="$mux"/><s:alias val="$_MUX_"/><path d="M0,0 L20,10 L20,30 L0,40 Z" class="cell_$procmux$20"/><text x="5" y="32" class="nodelabel cell_$procmux$20" s:attribute="">1</text><text x="5" y="13" class="nodelabel cell_$procmux$20" s:attribute="">0</text><g s:x="0" s:y="10" s:pid="A"/><g s:x="0" s:y="30" s:pid="B"/><g s:x="10" s:y="35" s:pid="S"/><g s:x="20" s:y="20" s:pid="Y"/></g><g s:type="mux" transform="translate(1075.3333333333333,471)" s:width="20" s:height="40" id="cell_$procmux$22"><s:alias val="$pmux"/><s:alias val="$mux"/><s:alias val="$_MUX_"/><path d="M0,0 L20,10 L20,30 L0,40 Z" class="cell_$procmux$22"/><text x="5" y="32" class="nodelabel cell_$procmux$22" s:attribute="">1</text><text x="5" y="13" class="nodelabel cell_$procmux$22" s:attribute="">0</text><g s:x="0" s:y="10" s:pid="A"/><g s:x="0" s:y="30" s:pid="B"/><g s:x="10" s:y="35" s:pid="S"/><g s:x="20" s:y="20" s:pid="Y"/></g><g s:type="mux" transform="translate(1138,603)" s:width="20" s:height="40" id="cell_$procmux$25"><s:alias val="$pmux"/><s:alias val="$mux"/><s:alias val="$_MUX_"/><path d="M0,0 L20,10 L20,30 L0,40 Z" class="cell_$procmux$25"/><text x="5" y="32" class="nodelabel cell_$procmux$25" s:attribute="">1</text><text x="5" y="13" class="nodelabel cell_$procmux$25" s:attribute="">0</text><g s:x="0" s:y="10" s:pid="A"/><g s:x="0" s:y="30" s:pid="B"/><g s:x="10" s:y="35" s:pid="S"/><g s:x="20" s:y="20" s:pid="Y"/></g><g s:type="mux-bus" transform="translate(881,385)" s:width="24" s:height="40" id="cell_$procmux$28"><s:alias val="$pmux-bus"/><s:alias val="$mux-bus"/><s:alias val="$_MUX_-bus"/><path d="M0,0 L20,10 L20,30 L0,40 Z" class="cell_$procmux$28"/><path d="M4,2 L4,0 L22,9 L22,31 L4,40 L4,38" class="cell_$procmux$28"/><path d="M8,2 L8,0 L24,8 L24,32 L8,40 L8,38" class="cell_$procmux$28"/><text x="5" y="32" class="nodelabel cell_$procmux$28" s:attribute="">1</text><text x="5" y="13" class="nodelabel cell_$procmux$28" s:attribute="">0</text><g s:x="-1" s:y="10" s:pid="A"/><g s:x="-1" s:y="30" s:pid="B"/><g s:x="12" s:y="38" s:pid="S"/><g s:x="24.5" s:y="20" s:pid="Y"/></g><g s:type="mux-bus" transform="translate(1012.5,375)" s:width="24" s:height="40" id="cell_$procmux$30"><s:alias val="$pmux-bus"/><s:alias val="$mux-bus"/><s:alias val="$_MUX_-bus"/><path d="M0,0 L20,10 L20,30 L0,40 Z" class="cell_$procmux$30"/><path d="M4,2 L4,0 L22,9 L22,31 L4,40 L4,38" class="cell_$procmux$30"/><path d="M8,2 L8,0 L24,8 L24,32 L8,40 L8,38" class="cell_$procmux$30"/><text x="5" y="32" class="nodelabel cell_$procmux$30" s:attribute="">1</text><text x="5" y="13" class="nodelabel cell_$procmux$30" s:attribute="">0</text><g s:x="-1" s:y="10" s:pid="A"/><g s:x="-1" s:y="30" s:pid="B"/><g s:x="12" s:y="38" s:pid="S"/><g s:x="24.5" s:y="20" s:pid="Y"/></g><g s:type="mux-bus" transform="translate(1138,385)" s:width="24" s:height="40" id="cell_$procmux$33"><s:alias val="$pmux-bus"/><s:alias val="$mux-bus"/><s:alias val="$_MUX_-bus"/><path d="M0,0 L20,10 L20,30 L0,40 Z" class="cell_$procmux$33"/><path d="M4,2 L4,0 L22,9 L22,31 L4,40 L4,38" class="cell_$procmux$33"/><path d="M8,2 L8,0 L24,8 L24,32 L8,40 L8,38" class="cell_$procmux$33"/><text x="5" y="32" class="nodelabel cell_$procmux$33" s:attribute="">1</text><text x="5" y="13" class="nodelabel cell_$procmux$33" s:attribute="">0</text><g s:x="-1" s:y="10" s:pid="A"/><g s:x="-1" s:y="30" s:pid="B"/><g s:x="12" s:y="38" s:pid="S"/><g s:x="24.5" s:y="20" s:pid="Y"/></g><g s:type="inputExt" transform="translate(12,45.5)" s:width="30" s:height="20" id="cell_clk"><text x="15" y="-4" class="nodelabel cell_clk" s:attribute="ref">clk</text><s:alias val="$_inputExt_"/><path d="M0,0 L0,20 L15,20 L30,10 L15,0 Z" class="cell_clk"/><g s:x="30" s:y="10" s:pid="Y"/></g><g s:type="inputExt" transform="translate(12,110.5)" s:width="30" s:height="20" id="cell_rst_n"><text x="15" y="-4" class="nodelabel cell_rst_n" s:attribute="ref">rst_n</text><s:alias val="$_inputExt_"/><path d="M0,0 L0,20 L15,20 L30,10 L15,0 Z" class="cell_rst_n"/><g s:x="30" s:y="10" s:pid="Y"/></g><g s:type="inputExt" transform="translate(82,640.5)" s:width="30" s:height="20" id="cell_start"><text x="15" y="-4" class="nodelabel cell_start" s:attribute="ref">start</text><s:alias val="$_inputExt_"/><path d="M0,0 L0,20 L15,20 L30,10 L15,0 Z" class="cell_start"/><g s:x="30" s:y="10" s:pid="Y"/></g><g s:type="inputExt" transform="translate(82,705.5)" s:width="30" s:height="20" id="cell_key_ready"><text x="15" y="-4" class="nodelabel cell_key_ready" s:attribute="ref">key_ready</text><s:alias val="$_inputExt_"/><path d="M0,0 L0,20 L15,20 L30,10 L15,0 Z" class="cell_key_ready"/><g s:x="30" s:y="10" s:pid="Y"/></g><g s:type="outputExt" transform="translate(1138,314)" s:width="30" s:height="20" id="cell_round_num"><text x="15" y="-4" class="nodelabel cell_round_num" s:attribute="ref">round_num</text><s:alias val="$_outputExt_"/><path d="M30,0 L30,20 L15,20 L0,10 L15,0 Z" class="cell_round_num"/><g s:x="0" s:y="10" s:pid="A"/></g><g s:type="outputExt" transform="translate(1137,673)" s:width="30" s:height="20" id="cell_init_cycle"><text x="15" y="-4" class="nodelabel cell_init_cycle" s:attribute="ref">init_cycle</text><s:alias val="$_outputExt_"/><path d="M30,0 L30,20 L15,20 L0,10 L15,0 Z" class="cell_init_cycle"/><g s:x="0" s:y="10" s:pid="A"/></g><g s:type="outputExt" transform="translate(1138,22)" s:width="30" s:height="20" id="cell_busy"><text x="15" y="-4" class="nodelabel cell_busy" s:attribute="ref">busy</text><s:alias val="$_outputExt_"/><path d="M30,0 L30,20 L15,20 L0,10 L15,0 Z" class="cell_busy"/><g s:x="0" s:y="10" s:pid="A"/></g><g s:type="outputExt" transform="translate(1138,249)" s:width="30" s:height="20" id="cell_done"><text x="15" y="-4" class="nodelabel cell_done" s:attribute="ref">done</text><s:alias val="$_outputExt_"/><path d="M30,0 L30,20 L15,20 L0,10 L15,0 Z" class="cell_done"/><g s:x="0" s:y="10" s:pid="A"/></g><g s:type="constant" transform="translate(479,229)" s:width="30" s:height="20" id="cell_0001"><text x="15" y="-4" class="nodelabel cell_0001" s:attribute="ref">0x1</text><s:alias val="$_constant_"/><rect width="30" height="20" class="cell_0001"/><g s:x="31" s:y="10" s:pid="Y"/></g><g s:type="constant" transform="translate(663,310)" s:width="30" s:height="20" id="cell_1010"><text x="15" y="-4" class="nodelabel cell_1010" s:attribute="ref">0xa</text><s:alias val="$_constant_"/><rect width="30" height="20" class="cell_1010"/><g s:x="31" s:y="10" s:pid="Y"/></g><g s:type="constant" transform="translate(940.5,552)" s:width="30" s:height="20" id="cell_1"><text x="15" y="-4" class="nodelabel cell_1" s:attribute="ref">1</text><s:alias val="$_constant_"/><rect width="30" height="20" class="cell_1"/><g s:x="31" s:y="10" s:pid="Y"/></g><g s:type="constant" transform="translate(940.5,501)" s:width="30" s:height="20" id="cell_0"><text x="15" y="-4" class="nodelabel cell_0" s:attribute="ref">0</text><s:alias val="$_constant_"/><rect width="30" height="20" class="cell_0"/><g s:x="31" s:y="10" s:pid="Y"/></g><g s:type="constant" transform="translate(729,176.5)" s:width="30" s:height="20" id="cell_0000"><text x="15" y="-4" class="nodelabel cell_0000" s:attribute="ref">0x0</text><s:alias val="$_constant_"/><rect width="30" height="20" class="cell_0000"/><g s:x="31" s:y="10" s:pid="Y"/></g><g s:type="join" transform="translate(309,144.5)" s:width="4" s:height="40" id="cell_$join$,11,10,"><rect width="5" height="40" class="splitjoinBody" s:generic="body"/><s:alias val="$_join_"/><g s:x="5" s:y="20" s:pid="out"/><g transform="translate(0,10)" s:x="0" s:y="10" s:pid="in0"><text x="-3" y="-4" class="inputPortLabel">0</text></g><g transform="translate(0,30)" s:x="0" s:y="10" s:pid="in0"><text x="-3" y="-4" class="inputPortLabel">1</text></g></g><line x1="510" x2="733" y1="111.5" y2="111.5" class="net_6,7,8,9 width_4" style="stroke-width: 2"/><line x1="510" x2="653" y1="111.5" y2="111.5" class="net_6,7,8,9 width_4" style="stroke-width: 2"/><line x1="653" x2="653" y1="111.5" y2="259" class="net_6,7,8,9 width_4" style="stroke-width: 2"/><circle cx="653" cy="111.5" r="3" style="fill:#000" class="net_6,7,8,9 width_4"/><line x1="653" x2="797" y1="259" y2="259" class="net_6,7,8,9 width_4" style="stroke-width: 2"/><line x1="510" x2="653" y1="111.5" y2="111.5" class="net_6,7,8,9 width_4" style="stroke-width: 2"/><line x1="653" x2="653" y1="111.5" y2="44" class="net_6,7,8,9 width_4" style="stroke-width: 2"/><line x1="653" x2="870" y1="44" y2="44" class="net_6,7,8,9 width_4" style="stroke-width: 2"/><line x1="870" x2="870" y1="44" y2="324" class="net_6,7,8,9 width_4" style="stroke-width: 2"/><line x1="870" x2="1138" y1="324" y2="324" class="net_6,7,8,9 width_4" style="stroke-width: 2"/><line x1="510" x2="704" y1="239" y2="239" class="net_36,37,38,39 width_4" style="stroke-width: 2"/><line x1="704" x2="704" y1="239" y2="126.5" class="net_36,37,38,39 width_4" style="stroke-width: 2"/><line x1="704" x2="733" y1="126.5" y2="126.5" class="net_36,37,38,39 width_4" style="stroke-width: 2"/><line x1="510" x2="643" y1="239" y2="239" class="net_36,37,38,39 width_4" style="stroke-width: 2"/><line x1="643" x2="643" y1="239" y2="460" class="net_36,37,38,39 width_4" style="stroke-width: 2"/><line x1="643" x2="1112" y1="460" y2="460" class="net_36,37,38,39 width_4" style="stroke-width: 2"/><line x1="1112" x2="1112" y1="460" y2="415" class="net_36,37,38,39 width_4" style="stroke-width: 2"/><circle cx="643" cy="239" r="3" style="fill:#000" class="net_36,37,38,39 width_4"/><line x1="1112" x2="1137" y1="415" y2="415" class="net_36,37,38,39 width_4" style="stroke-width: 2"/><line x1="42" x2="439" y1="120.5" y2="120.5" class="net_3 width_1" style="stroke-width: 1"/><line x1="439" x2="439" y1="120.5" y2="111.5" class="net_3 width_1" style="stroke-width: 1"/><line x1="439" x2="479" y1="111.5" y2="111.5" class="net_3 width_1" style="stroke-width: 1"/><line x1="42" x2="52" y1="120.5" y2="120.5" class="net_3 width_1" style="stroke-width: 1"/><line x1="52" x2="52" y1="120.5" y2="195" class="net_3 width_1" style="stroke-width: 1"/><line x1="52" x2="105" y1="195" y2="195" class="net_3 width_1" style="stroke-width: 1"/><circle cx="52" cy="120.5" r="2" style="fill:#000" class="net_3 width_1"/><line x1="105" x2="105" y1="195" y2="185" class="net_3 width_1" style="stroke-width: 1"/><line x1="42" x2="72" y1="55.5" y2="55.5" class="net_2 width_1" style="stroke-width: 1"/><line x1="72" x2="72" y1="55.5" y2="131.5" class="net_2 width_1" style="stroke-width: 1"/><circle cx="72" cy="131.5" r="2" style="fill:#000" class="net_2 width_1"/><line x1="72" x2="479" y1="131.5" y2="131.5" class="net_2 width_1" style="stroke-width: 1"/><line x1="42" x2="72" y1="55.5" y2="55.5" class="net_2 width_1" style="stroke-width: 1"/><line x1="72" x2="72" y1="55.5" y2="175" class="net_2 width_1" style="stroke-width: 1"/><line x1="72" x2="89" y1="175" y2="175" class="net_2 width_1" style="stroke-width: 1"/><line x1="1162.5" x2="1207" y1="405" y2="405" class="net_17,18,19,20 width_4" style="stroke-width: 2"/><line x1="1207" x2="1207" y1="405" y2="344" class="net_17,18,19,20 width_4" style="stroke-width: 2"/><line x1="1207" x2="860" y1="344" y2="344" class="net_17,18,19,20 width_4" style="stroke-width: 2"/><line x1="860" x2="860" y1="344" y2="56" class="net_17,18,19,20 width_4" style="stroke-width: 2"/><line x1="860" x2="429" y1="56" y2="56" class="net_17,18,19,20 width_4" style="stroke-width: 2"/><line x1="429" x2="429" y1="56" y2="151.5" class="net_17,18,19,20 width_4" style="stroke-width: 2"/><line x1="429" x2="479" y1="151.5" y2="151.5" class="net_17,18,19,20 width_4" style="stroke-width: 2"/><line x1="419" x2="429" y1="172.5" y2="172.5" class="net_21 width_1" style="stroke-width: 1"/><line x1="429" x2="429" y1="172.5" y2="171.5" class="net_21 width_1" style="stroke-width: 1"/><line x1="429" x2="479" y1="171.5" y2="171.5" class="net_21 width_1" style="stroke-width: 1"/><line x1="315" x2="391" y1="165" y2="165" class="net_11,10 width_2" style="stroke-width: 2"/><line x1="694" x2="770" y1="320" y2="320" class="net_40,41,42,43 width_4" style="stroke-width: 2"/><line x1="770" x2="770" y1="320" y2="274" class="net_40,41,42,43 width_4" style="stroke-width: 2"/><line x1="770" x2="797" y1="274" y2="274" class="net_40,41,42,43 width_4" style="stroke-width: 2"/><line x1="112" x2="171.66666666666666" y1="650.5" y2="650.5" class="net_4 width_1" style="stroke-width: 1"/><line x1="112" x2="146" y1="715.5" y2="715.5" class="net_5 width_1" style="stroke-width: 1"/><line x1="146" x2="146" y1="715.5" y2="665.5" class="net_5 width_1" style="stroke-width: 1"/><line x1="146" x2="171.66666666666666" y1="665.5" y2="665.5" class="net_5 width_1" style="stroke-width: 1"/><line x1="201.66666666666666" x2="212" y1="658" y2="658" class="net_23 width_1" style="stroke-width: 1"/><line x1="212" x2="212" y1="658" y2="585.5" class="net_23 width_1" style="stroke-width: 1"/><line x1="212" x2="237" y1="585.5" y2="585.5" class="net_23 width_1" style="stroke-width: 1"/><line x1="199" x2="237" y1="600.5" y2="600.5" class="net_24 width_1" style="stroke-width: 1"/><line x1="121" x2="146" y1="155" y2="155" class="net_11 width_1" style="stroke-width: 1"/><line x1="146" x2="146" y1="155" y2="32" class="net_11 width_1" style="stroke-width: 1"/><line x1="146" x2="1047" y1="32" y2="32" class="net_11 width_1" style="stroke-width: 1"/><line x1="1047" x2="1047" y1="32" y2="251.5" class="net_11 width_1" style="stroke-width: 1"/><circle cx="146" cy="155" r="2" style="fill:#000" class="net_11 width_1"/><circle cx="1047" cy="32" r="2" style="fill:#000" class="net_11 width_1"/><line x1="1047" x2="1072" y1="251.5" y2="251.5" class="net_11 width_1" style="stroke-width: 1"/><line x1="121" x2="146" y1="155" y2="155" class="net_11 width_1" style="stroke-width: 1"/><line x1="146" x2="146" y1="155" y2="600.5" class="net_11 width_1" style="stroke-width: 1"/><line x1="146" x2="171" y1="600.5" y2="600.5" class="net_11 width_1" style="stroke-width: 1"/><line x1="121" x2="287" y1="155" y2="155" class="net_11 width_1" style="stroke-width: 1"/><line x1="287" x2="287" y1="155" y2="445" class="net_11 width_1" style="stroke-width: 1"/><line x1="287" x2="633" y1="445" y2="445" class="net_11 width_1" style="stroke-width: 1"/><line x1="633" x2="633" y1="445" y2="582" class="net_11 width_1" style="stroke-width: 1"/><line x1="633" x2="1085.3333333333333" y1="582" y2="582" class="net_11 width_1" style="stroke-width: 1"/><circle cx="633" cy="445" r="2" style="fill:#000" class="net_11 width_1"/><line x1="1085.3333333333333" x2="1085.3333333333333" y1="582" y2="506" class="net_11 width_1" style="stroke-width: 1"/><line x1="121" x2="287" y1="155" y2="155" class="net_11 width_1" style="stroke-width: 1"/><line x1="287" x2="287" y1="155" y2="445" class="net_11 width_1" style="stroke-width: 1"/><line x1="287" x2="1024.5" y1="445" y2="445" class="net_11 width_1" style="stroke-width: 1"/><circle cx="287" cy="155" r="2" style="fill:#000" class="net_11 width_1"/><line x1="1024.5" x2="1024.5" y1="445" y2="413" class="net_11 width_1" style="stroke-width: 1"/><line x1="121" x2="146" y1="155" y2="155" class="net_11 width_1" style="stroke-width: 1"/><line x1="146" x2="146" y1="155" y2="32" class="net_11 width_1" style="stroke-width: 1"/><line x1="146" x2="1138" y1="32" y2="32" class="net_11 width_1" style="stroke-width: 1"/><line x1="121" x2="309" y1="155" y2="155" class="net_11 width_1" style="stroke-width: 1"/><line x1="820" x2="1072" y1="266.5" y2="266.5" class="net_22 width_1" style="stroke-width: 1"/><line x1="820" x2="830" y1="266.5" y2="266.5" class="net_22 width_1" style="stroke-width: 1"/><line x1="830" x2="830" y1="266.5" y2="531" class="net_22 width_1" style="stroke-width: 1"/><line x1="830" x2="1023.6666666666666" y1="531" y2="531" class="net_22 width_1" style="stroke-width: 1"/><circle cx="830" cy="266.5" r="2" style="fill:#000" class="net_22 width_1"/><line x1="1023.6666666666666" x2="1023.6666666666666" y1="531" y2="516" class="net_22 width_1" style="stroke-width: 1"/><line x1="820" x2="830" y1="266.5" y2="266.5" class="net_22 width_1" style="stroke-width: 1"/><line x1="830" x2="830" y1="266.5" y2="435" class="net_22 width_1" style="stroke-width: 1"/><line x1="830" x2="893" y1="435" y2="435" class="net_22 width_1" style="stroke-width: 1"/><circle cx="830" cy="435" r="2" style="fill:#000" class="net_22 width_1"/><line x1="893" x2="893" y1="435" y2="423" class="net_22 width_1" style="stroke-width: 1"/><line x1="1158" x2="1207" y1="623" y2="623" class="net_25 width_1" style="stroke-width: 1"/><line x1="1207" x2="1207" y1="623" y2="735.5" class="net_25 width_1" style="stroke-width: 1"/><line x1="1207" x2="62" y1="735.5" y2="735.5" class="net_25 width_1" style="stroke-width: 1"/><line x1="62" x2="62" y1="735.5" y2="155" class="net_25 width_1" style="stroke-width: 1"/><line x1="62" x2="89" y1="155" y2="155" class="net_25 width_1" style="stroke-width: 1"/><line x1="971.5" x2="991.5" y1="562" y2="562" class="net_44 width_1" style="stroke-width: 1"/><line x1="991.5" x2="991.5" y1="562" y2="491" class="net_44 width_1" style="stroke-width: 1"/><circle cx="991.5" cy="562" r="2" style="fill:#000" class="net_44 width_1"/><line x1="991.5" x2="1013.6666666666666" y1="491" y2="491" class="net_44 width_1" style="stroke-width: 1"/><line x1="971.5" x2="991.5" y1="562" y2="562" class="net_44 width_1" style="stroke-width: 1"/><line x1="991.5" x2="991.5" y1="562" y2="633" class="net_44 width_1" style="stroke-width: 1"/><line x1="991.5" x2="1138" y1="633" y2="633" class="net_44 width_1" style="stroke-width: 1"/><line x1="971.5" x2="1013.6666666666666" y1="511" y2="511" class="net_45 width_1" style="stroke-width: 1"/><line x1="971.5" x2="1001.5" y1="511" y2="511" class="net_45 width_1" style="stroke-width: 1"/><line x1="1001.5" x2="1001.5" y1="511" y2="541" class="net_45 width_1" style="stroke-width: 1"/><line x1="1001.5" x2="1047" y1="541" y2="541" class="net_45 width_1" style="stroke-width: 1"/><line x1="1047" x2="1047" y1="541" y2="481" class="net_45 width_1" style="stroke-width: 1"/><circle cx="1001.5" cy="511" r="2" style="fill:#000" class="net_45 width_1"/><line x1="1047" x2="1075.3333333333333" y1="481" y2="481" class="net_45 width_1" style="stroke-width: 1"/><line x1="1033.6666666666665" x2="1075.3333333333333" y1="501" y2="501" class="net_26 width_1" style="stroke-width: 1"/><line x1="1095.3333333333333" x2="1112" y1="491" y2="491" class="net_27 width_1" style="stroke-width: 1"/><line x1="1112" x2="1112" y1="491" y2="613" class="net_27 width_1" style="stroke-width: 1"/><line x1="1112" x2="1138" y1="613" y2="613" class="net_27 width_1" style="stroke-width: 1"/><line x1="267" x2="981.5" y1="593" y2="593" class="net_10 width_1" style="stroke-width: 1"/><line x1="981.5" x2="981.5" y1="593" y2="653" class="net_10 width_1" style="stroke-width: 1"/><line x1="981.5" x2="1148" y1="653" y2="653" class="net_10 width_1" style="stroke-width: 1"/><circle cx="981.5" cy="593" r="2" style="fill:#000" class="net_10 width_1"/><line x1="1148" x2="1148" y1="653" y2="638" class="net_10 width_1" style="stroke-width: 1"/><line x1="267" x2="1150" y1="593" y2="593" class="net_10 width_1" style="stroke-width: 1"/><line x1="1150" x2="1150" y1="593" y2="423" class="net_10 width_1" style="stroke-width: 1"/><line x1="267" x2="981.5" y1="593" y2="593" class="net_10 width_1" style="stroke-width: 1"/><line x1="981.5" x2="981.5" y1="593" y2="653" class="net_10 width_1" style="stroke-width: 1"/><line x1="981.5" x2="1112" y1="653" y2="653" class="net_10 width_1" style="stroke-width: 1"/><line x1="1112" x2="1112" y1="653" y2="683" class="net_10 width_1" style="stroke-width: 1"/><circle cx="1112" cy="653" r="2" style="fill:#000" class="net_10 width_1"/><line x1="1112" x2="1137" y1="683" y2="683" class="net_10 width_1" style="stroke-width: 1"/><line x1="267" x2="277" y1="593" y2="593" class="net_10 width_1" style="stroke-width: 1"/><line x1="277" x2="277" y1="593" y2="175" class="net_10 width_1" style="stroke-width: 1"/><circle cx="277" cy="593" r="2" style="fill:#000" class="net_10 width_1"/><line x1="277" x2="309" y1="175" y2="175" class="net_10 width_1" style="stroke-width: 1"/><line x1="757" x2="850" y1="119" y2="119" class="net_13,14,15,16 width_4" style="stroke-width: 2"/><line x1="850" x2="850" y1="119" y2="395" class="net_13,14,15,16 width_4" style="stroke-width: 2"/><line x1="850" x2="880" y1="395" y2="395" class="net_13,14,15,16 width_4" style="stroke-width: 2"/><line x1="760" x2="840" y1="186.5" y2="186.5" class="net_48,49,50,51 width_4" style="stroke-width: 2"/><line x1="840" x2="840" y1="186.5" y2="415" class="net_48,49,50,51 width_4" style="stroke-width: 2"/><line x1="840" x2="880" y1="415" y2="415" class="net_48,49,50,51 width_4" style="stroke-width: 2"/><line x1="905.5" x2="1011.5" y1="405" y2="405" class="net_28,29,30,31 width_4" style="stroke-width: 2"/><line x1="1037" x2="1137" y1="395" y2="395" class="net_32,33,34,35 width_4" style="stroke-width: 2"/><line x1="1102" x2="1138" y1="259" y2="259" class="net_12 width_1" style="stroke-width: 1"/><rect x="891.75" y="319" width="16" height="9" class="net_6,7,8,9 width_4 busLabel_4" style="fill: white; stroke: none"/><text x="890.75" y="327" class="net_6,7,8,9 width_4 busLabel_4">/4/</text><rect x="891.75" y="319" width="16" height="9" class="net_6,7,8,9 width_4 busLabel_4" style="fill: white; stroke: none"/><text x="890.75" y="327" class="net_6,7,8,9 width_4 busLabel_4">/4/</text><rect x="891.75" y="319" width="16" height="9" class="net_6,7,8,9 width_4 busLabel_4" style="fill: white; stroke: none"/><text x="890.75" y="327" class="net_6,7,8,9 width_4 busLabel_4">/4/</text><rect x="891.75" y="455" width="16" height="9" class="net_36,37,38,39 width_4 busLabel_4" style="fill: white; stroke: none"/><text x="890.75" y="463" class="net_36,37,38,39 width_4 busLabel_4">/4/</text><rect x="891.75" y="455" width="16" height="9" class="net_36,37,38,39 width_4 busLabel_4" style="fill: white; stroke: none"/><text x="890.75" y="463" class="net_36,37,38,39 width_4 busLabel_4">/4/</text><rect x="891.75" y="339" width="16" height="9" class="net_17,18,19,20 width_4 busLabel_4" style="fill: white; stroke: none"/><text x="890.75" y="347" class="net_17,18,19,20 width_4 busLabel_4">/4/</text><rect x="351" y="160" width="16" height="9" class="net_11,10 width_2 busLabel_2" style="fill: white; stroke: none"/><text x="350" y="168" class="net_11,10 width_2 busLabel_2">/2/</text><rect x="743.5" y="315" width="16" height="9" class="net_40,41,42,43 width_4 busLabel_4" style="fill: white; stroke: none"/><text x="742.5" y="323" class="net_40,41,42,43 width_4 busLabel_4">/4/</text><rect x="806.5" y="114" width="16" height="9" class="net_13,14,15,16 width_4 busLabel_4" style="fill: white; stroke: none"/><text x="805.5" y="122" class="net_13,14,15,16 width_4 busLabel_4">/4/</text><rect x="806.5" y="181.5" width="16" height="9" class="net_48,49,50,51 width_4 busLabel_4" style="fill: white; stroke: none"/><text x="805.5" y="189.5" class="net_48,49,50,51 width_4 busLabel_4">/4/</text><rect x="955" y="400" width="16" height="9" class="net_28,29,30,31 width_4 busLabel_4" style="fill: white; stroke: none"/><text x="954" y="408" class="net_28,29,30,31 width_4 busLabel_4">/4/</text><rect x="1086" y="390" width="16" height="9" class="net_32,33,34,35 width_4 busLabel_4" style="fill: white; stroke: none"/><text x="1085" y="398" class="net_32,33,34,35 width_4 busLabel_4">/4/</text></svg>